M48
; DRILL file {KiCad 9.0.6-9.0.6~ubuntu24.04.1} date 2025-12-25T21:51:27+0100
; FORMAT={-:-/ absolute / metric / decimal}
; #@! TF.CreationDate,2025-12-25T21:51:27+01:00
; #@! TF.GenerationSoftware,Kicad,Pcbnew,9.0.6-9.0.6~ubuntu24.04.1
; #@! TF.FileFunction,MixedPlating,1,4
FMAT,2
METRIC
; #@! TA.AperFunction,Plated,PTH,ViaDrill
T1C0.300
; #@! TA.AperFunction,Plated,PTH,ComponentDrill
T2C0.300
; #@! TA.AperFunction,Plated,PTH,ViaDrill
T3C0.350
; #@! TA.AperFunction,Plated,PTH,ComponentDrill
T4C0.610
; #@! TA.AperFunction,Plated,PTH,ComponentDrill
T5C0.800
; #@! TA.AperFunction,Plated,PTH,ComponentDrill
T6C2.200
; #@! TA.AperFunction,NonPlated,NPTH,ComponentDrill
T7C0.559
%
G90
G05
T1
X121.701Y-102.725
X121.701Y-104.725
X122.401Y-102.725
X122.401Y-104.725
X123.101Y-102.725
X123.101Y-104.725
X123.801Y-102.725
X123.801Y-104.725
X124.476Y-102.725
X124.476Y-104.725
X124.901Y-107.95
X124.901Y-110.85
X125.176Y-102.725
X125.176Y-104.725
X125.876Y-102.9
X125.876Y-104.55
X125.901Y-114.3
X126.576Y-102.9
X126.576Y-104.55
X127.276Y-102.9
X127.276Y-104.55
X127.726Y-94.5
X127.726Y-95.2
X127.726Y-95.875
X127.726Y-96.575
X127.726Y-97.275
X127.726Y-97.975
X127.726Y-98.65
X127.726Y-99.35
X127.726Y-100.025
X127.726Y-100.725
X127.726Y-101.425
X127.726Y-102.125
X127.726Y-105.3
X127.726Y-106.0
X127.726Y-106.675
X127.726Y-107.375
X127.726Y-108.075
X127.726Y-108.775
X127.726Y-109.45
X127.726Y-110.15
X127.726Y-110.825
X127.726Y-111.525
X127.726Y-112.225
X127.726Y-112.925
X127.726Y-113.675
X127.726Y-114.375
X127.751Y-91.7
X127.751Y-92.4
X127.751Y-93.1
X127.751Y-93.8
X127.776Y-115.825
X127.976Y-102.9
X127.976Y-104.55
X128.476Y-91.7
X128.476Y-115.825
X128.676Y-104.55
X128.701Y-102.85
X128.951Y-105.25
X128.951Y-108.95
X129.101Y-96.5
X129.151Y-115.825
X129.176Y-91.7
X129.301Y-111.3
X129.301Y-112.15
X129.301Y-113.2
X129.351Y-104.55
X129.451Y-102.85
X129.501Y-93.86
X129.601Y-101.15
X129.601Y-106.4
X129.851Y-91.7
X129.851Y-115.825
X130.051Y-104.55
X130.301Y-93.51
X130.301Y-95.06
X130.501Y-112.25
X130.501Y-113.799
X130.514Y-106.05
X130.514Y-107.574
X130.54Y-100.042
X130.54Y-101.508
X130.551Y-91.7
X130.551Y-115.825
X130.851Y-111.051
X130.951Y-93.0
X131.201Y-114.15
X131.251Y-91.7
X131.251Y-115.825
X131.351Y-97.3
X131.352Y-98.1
X131.851Y-111.75
X131.851Y-114.3
X131.951Y-91.7
X131.951Y-115.825
X132.001Y-102.554
X132.101Y-93.0
X132.101Y-95.5
X132.101Y-96.45
X132.201Y-105.15
X132.528Y-108.097
X132.536Y-99.0
X132.551Y-97.15
X132.551Y-97.75
X132.551Y-98.4
X132.551Y-108.953
X132.551Y-111.75
X132.551Y-114.3
X132.651Y-91.7
X132.651Y-115.825
X133.251Y-96.35
X133.251Y-111.75
X133.251Y-114.3
X133.301Y-93.628
X133.326Y-115.825
X133.351Y-91.7
X133.351Y-99.475
X133.358Y-101.921
X133.683Y-109.628
X133.701Y-110.55
X133.926Y-102.425
X134.001Y-93.7
X134.001Y-96.8
X134.001Y-111.75
X134.001Y-114.3
X134.026Y-91.7
X134.026Y-108.675
X134.026Y-115.825
X134.051Y-99.7
X134.601Y-94.15
X134.601Y-111.95
X134.642Y-106.34
X134.651Y-97.45
X134.651Y-109.15
X134.701Y-100.25
X134.726Y-91.7
X134.726Y-115.825
X134.751Y-102.75
X134.801Y-105.7
X134.842Y-114.607
X135.201Y-94.5
X135.201Y-112.1
X135.273Y-106.65
X135.273Y-109.3
X135.351Y-97.8
X135.351Y-100.4
X135.351Y-102.951
X135.426Y-91.7
X135.426Y-115.825
X135.551Y-95.1
X135.851Y-96.45
X135.851Y-112.1
X135.851Y-113.4
X135.851Y-114.646
X136.051Y-97.8
X136.126Y-91.7
X136.126Y-115.825
X136.251Y-95.1
X136.351Y-100.4
X136.351Y-102.951
X136.451Y-106.65
X136.701Y-97.8
X136.826Y-91.7
X136.826Y-115.825
X136.839Y-114.634
X136.851Y-95.25
X136.926Y-98.73
X136.926Y-109.81
X136.951Y-100.55
X137.051Y-103.05
X137.201Y-109.0
X137.351Y-97.904
X137.451Y-114.35
X137.501Y-100.9
X137.501Y-115.825
X137.526Y-91.7
X137.732Y-95.892
X137.754Y-106.973
X137.801Y-103.178
X137.951Y-101.3
X138.076Y-94.05
X138.076Y-105.08
X138.101Y-114.15
X138.201Y-91.7
X138.201Y-115.825
X138.38Y-112.324
X138.501Y-103.178
X138.601Y-101.4
X138.651Y-110.8
X138.651Y-111.5
X138.701Y-99.8
X138.701Y-100.55
X138.901Y-91.7
X138.901Y-115.825
X139.066Y-112.327
X139.202Y-101.422
X139.251Y-103.178
X139.601Y-91.7
X139.601Y-115.825
X139.651Y-93.394
X139.651Y-104.55
X139.951Y-103.178
X140.151Y-104.25
X140.152Y-93.05
X140.204Y-114.131
X140.301Y-91.7
X140.301Y-115.825
X140.651Y-104.55
X140.654Y-93.394
X140.701Y-103.178
X140.901Y-114.131
X140.991Y-91.68
X141.001Y-115.825
X141.151Y-104.25
X141.152Y-93.05
X141.451Y-103.178
X141.601Y-114.131
X141.611Y-101.404
X141.651Y-93.393
X141.651Y-104.55
X141.676Y-115.825
X141.691Y-91.68
X141.801Y-112.35
X142.051Y-99.8
X142.051Y-100.55
X142.101Y-110.8
X142.101Y-111.55
X142.155Y-93.112
X142.201Y-103.178
X142.251Y-101.4
X142.301Y-104.463
X142.301Y-114.131
X142.366Y-91.68
X142.376Y-115.825
X142.501Y-112.35
X142.951Y-101.4
X142.951Y-103.178
X142.981Y-99.7
X143.011Y-110.84
X143.051Y-114.131
X143.066Y-91.72
X143.076Y-115.825
X143.251Y-112.35
X143.726Y-94.27
X143.743Y-97.417
X143.751Y-95.4
X143.751Y-105.5
X143.751Y-106.45
X143.751Y-108.45
X143.766Y-91.72
X143.776Y-115.825
X143.801Y-114.131
X144.001Y-112.35
X144.466Y-91.72
X144.476Y-115.825
X144.501Y-106.95
X144.501Y-95.9
X144.501Y-103.178
X144.501Y-105.975
X144.551Y-101.4
X144.551Y-114.131
X144.701Y-112.35
X144.911Y-95.06
X145.101Y-103.178
X145.176Y-91.7
X145.176Y-115.825
X145.201Y-101.3
X145.345Y-112.044
X145.351Y-114.1
X145.651Y-100.85
X145.707Y-103.127
X145.751Y-106.75
X145.774Y-95.647
X145.776Y-107.75
X145.845Y-111.544
X145.851Y-115.825
X145.876Y-91.7
X146.051Y-113.85
X146.101Y-100.4
X146.121Y-94.74
X146.295Y-111.094
X146.301Y-95.382
X146.301Y-102.85
X146.351Y-97.0
X146.551Y-91.7
X146.551Y-113.35
X146.551Y-115.825
X146.601Y-100.0
X146.751Y-102.45
X146.77Y-110.619
X147.051Y-112.85
X147.151Y-102.0
X147.201Y-99.8
X147.251Y-91.7
X147.251Y-115.825
X147.376Y-94.55
X147.551Y-112.35
X147.601Y-101.55
X147.801Y-99.8
X147.951Y-91.7
X147.951Y-109.8
X147.951Y-115.825
X148.201Y-101.4
X148.401Y-111.5
X148.451Y-101.9
X148.651Y-91.7
X148.676Y-99.375
X148.676Y-115.825
X148.751Y-109.3
X148.771Y-113.12
X148.776Y-103.11
X149.001Y-111.8
X149.051Y-97.53
X149.051Y-101.9
X149.076Y-107.45
X149.376Y-91.7
X149.376Y-115.825
X149.601Y-111.8
X149.651Y-101.9
X150.051Y-115.825
X150.076Y-91.7
X150.201Y-96.275
X150.241Y-94.52
X150.301Y-105.85
X150.676Y-96.869
X150.676Y-106.85
X150.751Y-91.7
X150.751Y-115.825
X151.176Y-96.5
X151.176Y-106.525
X151.451Y-91.7
X151.451Y-115.825
X151.571Y-94.73
X151.676Y-96.869
X151.676Y-106.85
X152.151Y-91.7
X152.151Y-96.54
X152.151Y-115.825
X152.199Y-106.1
X152.676Y-96.869
X152.676Y-106.834
X152.851Y-91.7
X152.851Y-115.825
X153.192Y-106.555
X153.204Y-96.605
X153.551Y-91.7
X153.551Y-115.825
X154.026Y-113.1
X154.051Y-103.1
X154.226Y-115.825
X154.251Y-91.7
X154.776Y-100.875
X154.776Y-107.551
X154.776Y-108.775
X154.776Y-110.8
X154.781Y-97.56
X154.781Y-98.947
X154.926Y-91.7
X154.926Y-115.825
X155.601Y-98.275
X155.601Y-99.35
X155.601Y-109.3
X155.626Y-91.7
X155.626Y-115.825
X155.851Y-108.25
X156.001Y-94.253
X156.326Y-91.7
X156.326Y-115.825
X156.391Y-109.33
X156.4Y-98.578
X156.999Y-115.828
X157.026Y-91.7
X157.451Y-100.2
X157.461Y-99.125
X157.461Y-100.85
X157.461Y-101.53
X157.461Y-102.205
X157.471Y-97.588
X157.481Y-105.15
X157.481Y-107.49
X157.481Y-109.5
X157.481Y-110.2
X157.491Y-112.6
X157.491Y-113.25
X157.501Y-111.95
X158.573Y-109.45
X158.601Y-110.8
X158.826Y-94.253
X159.019Y-109.873
X159.201Y-107.6
X159.301Y-112.65
X159.363Y-103.092
X159.363Y-105.908
X159.373Y-99.705
X159.374Y-99.1
X159.501Y-110.95
X159.831Y-101.4
X159.847Y-103.407
X159.886Y-104.75
X160.1Y-107.203
X160.101Y-99.1
X160.193Y-97.573
X160.373Y-110.21
X160.373Y-109.633
X160.418Y-109.058
X160.707Y-105.213
X160.742Y-105.809
X160.742Y-103.844
X160.743Y-101.453
X161.022Y-106.332
X161.022Y-107.468
X161.027Y-112.144
X161.101Y-94.25
X161.251Y-100.725
X161.274Y-111.078
X161.301Y-98.81
X161.301Y-100.05
X161.301Y-110.5
X161.549Y-96.113
X161.549Y-114.152
X161.564Y-108.272
X161.564Y-108.861
X161.86Y-109.65
X162.151Y-94.5
X162.172Y-92.558
X162.299Y-95.608
X162.44Y-99.837
X162.716Y-110.79
X162.754Y-96.388
X162.775Y-102.674
X162.783Y-107.182
X162.801Y-109.1
X162.816Y-106.585
X162.877Y-96.982
X163.016Y-92.57
X163.023Y-95.532
X163.071Y-113.758
X163.076Y-104.006
X163.076Y-104.583
X163.101Y-103.15
X163.135Y-109.926
X163.164Y-101.9
X163.279Y-94.372
X163.292Y-110.818
X163.381Y-98.872
X163.651Y-111.998
X163.723Y-99.728
X163.785Y-111.132
X163.989Y-98.662
X164.057Y-93.544
X164.251Y-112.025
X164.458Y-95.622
X164.492Y-110.582
X164.864Y-109.0
X164.87Y-94.6
X164.914Y-111.008
X164.914Y-109.575
X165.41Y-96.481
X165.446Y-110.758
X166.151Y-102.875
X166.151Y-105.077
X166.301Y-91.7
X166.581Y-100.264
X166.808Y-106.556
X166.814Y-105.7
X166.823Y-99.65
X166.851Y-95.95
X166.851Y-104.43
X167.101Y-112.225
X167.151Y-115.85
X167.229Y-100.858
X167.251Y-102.5
X167.268Y-101.73
X167.435Y-95.942
X167.651Y-107.715
X167.671Y-106.223
X167.701Y-99.713
X167.873Y-101.75
X167.951Y-96.2
X168.366Y-98.27
X168.641Y-102.51
X168.648Y-104.947
X168.651Y-103.366
X168.651Y-106.55
X168.652Y-108.401
X169.201Y-97.9
X169.347Y-108.455
X169.429Y-101.75
X169.451Y-103.35
X169.451Y-105.75
X169.531Y-93.105
X169.531Y-93.75
X169.951Y-97.9
X170.004Y-110.708
X170.251Y-101.75
X170.251Y-103.35
X170.251Y-104.928
X170.251Y-105.75
X170.555Y-111.715
X170.561Y-108.638
X171.051Y-100.15
X171.051Y-101.75
X171.051Y-105.75
X171.055Y-109.014
X171.463Y-108.211
X171.641Y-109.014
X171.642Y-97.45
X171.772Y-98.857
X171.851Y-100.95
X171.851Y-101.75
X171.851Y-102.55
X171.851Y-104.15
X171.851Y-104.95
X171.851Y-105.75
X171.851Y-106.55
X172.401Y-110.748
X172.651Y-102.55
X172.651Y-104.95
X172.73Y-99.249
X173.021Y-95.82
X173.201Y-98.856
X173.441Y-103.33
X173.443Y-102.542
X173.451Y-94.25
X173.451Y-100.15
X173.451Y-106.55
X173.471Y-105.77
X173.77Y-98.952
X173.851Y-108.55
X173.851Y-111.05
X173.851Y-113.05
X173.851Y-115.85
X174.08Y-95.987
X174.261Y-102.55
X174.351Y-96.495
X174.7Y-95.998
X175.001Y-93.55
X175.051Y-100.15
X175.051Y-102.54
X175.051Y-103.35
X175.051Y-104.14
X175.051Y-105.75
X175.071Y-101.75
X175.188Y-98.857
X175.871Y-104.143
X177.101Y-98.2
X177.101Y-100.2
X177.101Y-102.5
X177.101Y-104.8
X177.101Y-107.75
X177.757Y-105.975
X178.201Y-109.2
X178.256Y-102.073
X178.451Y-105.375
X178.937Y-102.073
X179.322Y-105.608
X179.481Y-98.36
X179.751Y-104.6
X180.276Y-99.9
X180.301Y-108.6
X180.801Y-106.6
X181.251Y-101.5
X181.701Y-96.79
X181.726Y-99.9
X181.751Y-108.6
X181.801Y-104.35
X183.226Y-99.9
X183.251Y-108.6
X183.276Y-106.5
X183.301Y-103.1
X183.301Y-104.6
X183.701Y-102.6
X183.751Y-107.9
X183.892Y-106.471
X183.901Y-104.6
X183.901Y-105.35
X184.354Y-107.902
X184.651Y-94.75
X184.701Y-108.625
X184.726Y-99.95
X185.201Y-103.869
X185.301Y-94.25
X185.401Y-96.175
X185.401Y-98.55
X185.401Y-109.2
X185.411Y-107.135
X185.495Y-105.368
X185.496Y-104.372
X185.498Y-103.367
X185.901Y-115.15
X187.851Y-104.127
X188.096Y-106.258
X188.101Y-101.495
X188.101Y-102.071
X188.101Y-103.2
X188.101Y-105.682
X191.151Y-103.75
X192.476Y-96.85
T2
X139.551Y-95.3
X139.551Y-96.4
X139.551Y-97.5
X139.551Y-106.375
X139.551Y-107.475
X139.551Y-108.575
X140.651Y-95.3
X140.651Y-96.4
X140.651Y-97.5
X140.651Y-106.375
X140.651Y-107.475
X140.651Y-108.575
X141.751Y-95.3
X141.751Y-96.4
X141.751Y-97.5
X141.751Y-106.375
X141.751Y-107.475
X141.751Y-108.575
X150.576Y-98.775
X150.576Y-99.875
X150.576Y-100.975
X150.576Y-108.7
X150.576Y-109.8
X150.576Y-110.9
X151.676Y-98.775
X151.676Y-99.875
X151.676Y-100.975
X151.676Y-108.7
X151.676Y-109.8
X151.676Y-110.9
X152.776Y-98.775
X152.776Y-99.875
X152.776Y-100.975
X152.776Y-108.7
X152.776Y-109.8
X152.776Y-110.9
T3
X165.941Y-113.99
X165.951Y-114.9
X169.001Y-114.9
X169.801Y-114.9
X172.321Y-97.441
X174.626Y-111.725
X174.651Y-109.2
X175.851Y-97.129
X175.851Y-99.1
X176.901Y-110.02
X180.021Y-113.93
X180.021Y-114.889
X182.926Y-114.9
X183.726Y-114.9
T5
X179.001Y-94.05
X181.001Y-94.05
T6
X123.301Y-114.45
X123.551Y-93.3
X190.651Y-114.45
X190.751Y-93.0
T7
X187.95Y-100.35
X187.95Y-107.15
T4
G00X186.092Y-99.429
M15
G01X187.112Y-99.429
M16
G05
G00X186.092Y-108.071
M15
G01X187.112Y-108.071
M16
G05
G00X187.11Y-99.994
M15
G01X187.11Y-99.424
M16
G05
G00X187.11Y-108.076
M15
G01X187.11Y-107.506
M16
G05
G00X190.481Y-99.429
M15
G01X191.821Y-99.429
M16
G05
G00X190.481Y-108.071
M15
G01X191.821Y-108.071
M16
G05
M30
