%TF.GenerationSoftware,KiCad,Pcbnew,9.0.6-9.0.6~ubuntu24.04.1*%
%TF.CreationDate,2025-12-25T21:51:22+01:00*%
%TF.ProjectId,v3.0,76332e30-2e6b-4696-9361-645f70636258,rev?*%
%TF.SameCoordinates,Original*%
%TF.FileFunction,Legend,Bot*%
%TF.FilePolarity,Positive*%
%FSLAX46Y46*%
G04 Gerber Fmt 4.6, Leading zero omitted, Abs format (unit mm)*
G04 Created by KiCad (PCBNEW 9.0.6-9.0.6~ubuntu24.04.1) date 2025-12-25 21:51:22*
%MOMM*%
%LPD*%
G01*
G04 APERTURE LIST*
G04 Aperture macros list*
%AMRoundRect*
0 Rectangle with rounded corners*
0 $1 Rounding radius*
0 $2 $3 $4 $5 $6 $7 $8 $9 X,Y pos of 4 corners*
0 Add a 4 corners polygon primitive as box body*
4,1,4,$2,$3,$4,$5,$6,$7,$8,$9,$2,$3,0*
0 Add four circle primitives for the rounded corners*
1,1,$1+$1,$2,$3*
1,1,$1+$1,$4,$5*
1,1,$1+$1,$6,$7*
1,1,$1+$1,$8,$9*
0 Add four rect primitives between the rounded corners*
20,1,$1+$1,$2,$3,$4,$5,0*
20,1,$1+$1,$4,$5,$6,$7,0*
20,1,$1+$1,$6,$7,$8,$9,0*
20,1,$1+$1,$8,$9,$2,$3,0*%
G04 Aperture macros list end*
%ADD10C,0.097536*%
%ADD11C,1.003200*%
%ADD12C,3.800000*%
%ADD13RoundRect,0.050800X-2.000000X-0.500000X2.000000X-0.500000X2.000000X0.500000X-2.000000X0.500000X0*%
%ADD14C,1.409600*%
%ADD15C,0.558800*%
%ADD16O,2.006600X0.990600*%
%ADD17O,2.311400X0.990600*%
%ADD18O,0.990600X1.549400*%
G04 APERTURE END LIST*
D10*
X159411694Y-111544559D02*
X159002972Y-111544559D01*
X159207333Y-112259823D02*
X159207333Y-111544559D01*
X158764551Y-112259823D02*
X158764551Y-111544559D01*
X158764551Y-111544559D02*
X158492069Y-111544559D01*
X158492069Y-111544559D02*
X158423949Y-111578619D01*
X158423949Y-111578619D02*
X158389888Y-111612679D01*
X158389888Y-111612679D02*
X158355828Y-111680799D01*
X158355828Y-111680799D02*
X158355828Y-111782980D01*
X158355828Y-111782980D02*
X158389888Y-111851100D01*
X158389888Y-111851100D02*
X158423949Y-111885161D01*
X158423949Y-111885161D02*
X158492069Y-111919221D01*
X158492069Y-111919221D02*
X158764551Y-111919221D01*
X157674624Y-112259823D02*
X158083347Y-112259823D01*
X157878986Y-112259823D02*
X157878986Y-111544559D01*
X157878986Y-111544559D02*
X157947106Y-111646739D01*
X157947106Y-111646739D02*
X158015226Y-111714860D01*
X158015226Y-111714860D02*
X158083347Y-111748920D01*
X145803694Y-104610559D02*
X145394972Y-104610559D01*
X145599333Y-105325823D02*
X145599333Y-104610559D01*
X145156551Y-105325823D02*
X145156551Y-104610559D01*
X145156551Y-104610559D02*
X144884069Y-104610559D01*
X144884069Y-104610559D02*
X144815949Y-104644619D01*
X144815949Y-104644619D02*
X144781888Y-104678679D01*
X144781888Y-104678679D02*
X144747828Y-104746799D01*
X144747828Y-104746799D02*
X144747828Y-104848980D01*
X144747828Y-104848980D02*
X144781888Y-104917100D01*
X144781888Y-104917100D02*
X144815949Y-104951161D01*
X144815949Y-104951161D02*
X144884069Y-104985221D01*
X144884069Y-104985221D02*
X145156551Y-104985221D01*
X144509407Y-104610559D02*
X144032564Y-104610559D01*
X144032564Y-104610559D02*
X144339106Y-105325823D01*
X160953694Y-92960559D02*
X160544972Y-92960559D01*
X160749333Y-93675823D02*
X160749333Y-92960559D01*
X160306551Y-93675823D02*
X160306551Y-92960559D01*
X160306551Y-92960559D02*
X160034069Y-92960559D01*
X160034069Y-92960559D02*
X159965949Y-92994619D01*
X159965949Y-92994619D02*
X159931888Y-93028679D01*
X159931888Y-93028679D02*
X159897828Y-93096799D01*
X159897828Y-93096799D02*
X159897828Y-93198980D01*
X159897828Y-93198980D02*
X159931888Y-93267100D01*
X159931888Y-93267100D02*
X159965949Y-93301161D01*
X159965949Y-93301161D02*
X160034069Y-93335221D01*
X160034069Y-93335221D02*
X160306551Y-93335221D01*
X159284745Y-93198980D02*
X159284745Y-93675823D01*
X159455046Y-92926499D02*
X159625347Y-93437401D01*
X159625347Y-93437401D02*
X159182564Y-93437401D01*
X157053694Y-106710559D02*
X156644972Y-106710559D01*
X156849333Y-107425823D02*
X156849333Y-106710559D01*
X156406551Y-107425823D02*
X156406551Y-106710559D01*
X156406551Y-106710559D02*
X156134069Y-106710559D01*
X156134069Y-106710559D02*
X156065949Y-106744619D01*
X156065949Y-106744619D02*
X156031888Y-106778679D01*
X156031888Y-106778679D02*
X155997828Y-106846799D01*
X155997828Y-106846799D02*
X155997828Y-106948980D01*
X155997828Y-106948980D02*
X156031888Y-107017100D01*
X156031888Y-107017100D02*
X156065949Y-107051161D01*
X156065949Y-107051161D02*
X156134069Y-107085221D01*
X156134069Y-107085221D02*
X156406551Y-107085221D01*
X155589106Y-107017100D02*
X155657226Y-106983040D01*
X155657226Y-106983040D02*
X155691287Y-106948980D01*
X155691287Y-106948980D02*
X155725347Y-106880860D01*
X155725347Y-106880860D02*
X155725347Y-106846799D01*
X155725347Y-106846799D02*
X155691287Y-106778679D01*
X155691287Y-106778679D02*
X155657226Y-106744619D01*
X155657226Y-106744619D02*
X155589106Y-106710559D01*
X155589106Y-106710559D02*
X155452865Y-106710559D01*
X155452865Y-106710559D02*
X155384745Y-106744619D01*
X155384745Y-106744619D02*
X155350685Y-106778679D01*
X155350685Y-106778679D02*
X155316624Y-106846799D01*
X155316624Y-106846799D02*
X155316624Y-106880860D01*
X155316624Y-106880860D02*
X155350685Y-106948980D01*
X155350685Y-106948980D02*
X155384745Y-106983040D01*
X155384745Y-106983040D02*
X155452865Y-107017100D01*
X155452865Y-107017100D02*
X155589106Y-107017100D01*
X155589106Y-107017100D02*
X155657226Y-107051161D01*
X155657226Y-107051161D02*
X155691287Y-107085221D01*
X155691287Y-107085221D02*
X155725347Y-107153341D01*
X155725347Y-107153341D02*
X155725347Y-107289582D01*
X155725347Y-107289582D02*
X155691287Y-107357702D01*
X155691287Y-107357702D02*
X155657226Y-107391763D01*
X155657226Y-107391763D02*
X155589106Y-107425823D01*
X155589106Y-107425823D02*
X155452865Y-107425823D01*
X155452865Y-107425823D02*
X155384745Y-107391763D01*
X155384745Y-107391763D02*
X155350685Y-107357702D01*
X155350685Y-107357702D02*
X155316624Y-107289582D01*
X155316624Y-107289582D02*
X155316624Y-107153341D01*
X155316624Y-107153341D02*
X155350685Y-107085221D01*
X155350685Y-107085221D02*
X155384745Y-107051161D01*
X155384745Y-107051161D02*
X155452865Y-107017100D01*
X162503694Y-97410559D02*
X162094972Y-97410559D01*
X162299333Y-98125823D02*
X162299333Y-97410559D01*
X161856551Y-98125823D02*
X161856551Y-97410559D01*
X161856551Y-97410559D02*
X161584069Y-97410559D01*
X161584069Y-97410559D02*
X161515949Y-97444619D01*
X161515949Y-97444619D02*
X161481888Y-97478679D01*
X161481888Y-97478679D02*
X161447828Y-97546799D01*
X161447828Y-97546799D02*
X161447828Y-97648980D01*
X161447828Y-97648980D02*
X161481888Y-97717100D01*
X161481888Y-97717100D02*
X161515949Y-97751161D01*
X161515949Y-97751161D02*
X161584069Y-97785221D01*
X161584069Y-97785221D02*
X161856551Y-97785221D01*
X161175347Y-97478679D02*
X161141287Y-97444619D01*
X161141287Y-97444619D02*
X161073166Y-97410559D01*
X161073166Y-97410559D02*
X160902865Y-97410559D01*
X160902865Y-97410559D02*
X160834745Y-97444619D01*
X160834745Y-97444619D02*
X160800685Y-97478679D01*
X160800685Y-97478679D02*
X160766624Y-97546799D01*
X160766624Y-97546799D02*
X160766624Y-97614920D01*
X160766624Y-97614920D02*
X160800685Y-97717100D01*
X160800685Y-97717100D02*
X161209407Y-98125823D01*
X161209407Y-98125823D02*
X160766624Y-98125823D01*
X157053694Y-96910559D02*
X156644972Y-96910559D01*
X156849333Y-97625823D02*
X156849333Y-96910559D01*
X156406551Y-97625823D02*
X156406551Y-96910559D01*
X156406551Y-96910559D02*
X156134069Y-96910559D01*
X156134069Y-96910559D02*
X156065949Y-96944619D01*
X156065949Y-96944619D02*
X156031888Y-96978679D01*
X156031888Y-96978679D02*
X155997828Y-97046799D01*
X155997828Y-97046799D02*
X155997828Y-97148980D01*
X155997828Y-97148980D02*
X156031888Y-97217100D01*
X156031888Y-97217100D02*
X156065949Y-97251161D01*
X156065949Y-97251161D02*
X156134069Y-97285221D01*
X156134069Y-97285221D02*
X156406551Y-97285221D01*
X155384745Y-96910559D02*
X155520986Y-96910559D01*
X155520986Y-96910559D02*
X155589106Y-96944619D01*
X155589106Y-96944619D02*
X155623166Y-96978679D01*
X155623166Y-96978679D02*
X155691287Y-97080860D01*
X155691287Y-97080860D02*
X155725347Y-97217100D01*
X155725347Y-97217100D02*
X155725347Y-97489582D01*
X155725347Y-97489582D02*
X155691287Y-97557702D01*
X155691287Y-97557702D02*
X155657226Y-97591763D01*
X155657226Y-97591763D02*
X155589106Y-97625823D01*
X155589106Y-97625823D02*
X155452865Y-97625823D01*
X155452865Y-97625823D02*
X155384745Y-97591763D01*
X155384745Y-97591763D02*
X155350685Y-97557702D01*
X155350685Y-97557702D02*
X155316624Y-97489582D01*
X155316624Y-97489582D02*
X155316624Y-97319281D01*
X155316624Y-97319281D02*
X155350685Y-97251161D01*
X155350685Y-97251161D02*
X155384745Y-97217100D01*
X155384745Y-97217100D02*
X155452865Y-97183040D01*
X155452865Y-97183040D02*
X155589106Y-97183040D01*
X155589106Y-97183040D02*
X155657226Y-97217100D01*
X155657226Y-97217100D02*
X155691287Y-97251161D01*
X155691287Y-97251161D02*
X155725347Y-97319281D01*
X164203694Y-94960559D02*
X163794972Y-94960559D01*
X163999333Y-95675823D02*
X163999333Y-94960559D01*
X163556551Y-95675823D02*
X163556551Y-94960559D01*
X163556551Y-94960559D02*
X163284069Y-94960559D01*
X163284069Y-94960559D02*
X163215949Y-94994619D01*
X163215949Y-94994619D02*
X163181888Y-95028679D01*
X163181888Y-95028679D02*
X163147828Y-95096799D01*
X163147828Y-95096799D02*
X163147828Y-95198980D01*
X163147828Y-95198980D02*
X163181888Y-95267100D01*
X163181888Y-95267100D02*
X163215949Y-95301161D01*
X163215949Y-95301161D02*
X163284069Y-95335221D01*
X163284069Y-95335221D02*
X163556551Y-95335221D01*
X162807226Y-95675823D02*
X162670986Y-95675823D01*
X162670986Y-95675823D02*
X162602865Y-95641763D01*
X162602865Y-95641763D02*
X162568805Y-95607702D01*
X162568805Y-95607702D02*
X162500685Y-95505522D01*
X162500685Y-95505522D02*
X162466624Y-95369281D01*
X162466624Y-95369281D02*
X162466624Y-95096799D01*
X162466624Y-95096799D02*
X162500685Y-95028679D01*
X162500685Y-95028679D02*
X162534745Y-94994619D01*
X162534745Y-94994619D02*
X162602865Y-94960559D01*
X162602865Y-94960559D02*
X162739106Y-94960559D01*
X162739106Y-94960559D02*
X162807226Y-94994619D01*
X162807226Y-94994619D02*
X162841287Y-95028679D01*
X162841287Y-95028679D02*
X162875347Y-95096799D01*
X162875347Y-95096799D02*
X162875347Y-95267100D01*
X162875347Y-95267100D02*
X162841287Y-95335221D01*
X162841287Y-95335221D02*
X162807226Y-95369281D01*
X162807226Y-95369281D02*
X162739106Y-95403341D01*
X162739106Y-95403341D02*
X162602865Y-95403341D01*
X162602865Y-95403341D02*
X162534745Y-95369281D01*
X162534745Y-95369281D02*
X162500685Y-95335221D01*
X162500685Y-95335221D02*
X162466624Y-95267100D01*
X146003694Y-93710559D02*
X145594972Y-93710559D01*
X145799333Y-94425823D02*
X145799333Y-93710559D01*
X145356551Y-94425823D02*
X145356551Y-93710559D01*
X145356551Y-93710559D02*
X145084069Y-93710559D01*
X145084069Y-93710559D02*
X145015949Y-93744619D01*
X145015949Y-93744619D02*
X144981888Y-93778679D01*
X144981888Y-93778679D02*
X144947828Y-93846799D01*
X144947828Y-93846799D02*
X144947828Y-93948980D01*
X144947828Y-93948980D02*
X144981888Y-94017100D01*
X144981888Y-94017100D02*
X145015949Y-94051161D01*
X145015949Y-94051161D02*
X145084069Y-94085221D01*
X145084069Y-94085221D02*
X145356551Y-94085221D01*
X144300685Y-93710559D02*
X144641287Y-93710559D01*
X144641287Y-93710559D02*
X144675347Y-94051161D01*
X144675347Y-94051161D02*
X144641287Y-94017100D01*
X144641287Y-94017100D02*
X144573166Y-93983040D01*
X144573166Y-93983040D02*
X144402865Y-93983040D01*
X144402865Y-93983040D02*
X144334745Y-94017100D01*
X144334745Y-94017100D02*
X144300685Y-94051161D01*
X144300685Y-94051161D02*
X144266624Y-94119281D01*
X144266624Y-94119281D02*
X144266624Y-94289582D01*
X144266624Y-94289582D02*
X144300685Y-94357702D01*
X144300685Y-94357702D02*
X144334745Y-94391763D01*
X144334745Y-94391763D02*
X144402865Y-94425823D01*
X144402865Y-94425823D02*
X144573166Y-94425823D01*
X144573166Y-94425823D02*
X144641287Y-94391763D01*
X144641287Y-94391763D02*
X144675347Y-94357702D01*
X152374176Y-93436535D02*
X151965454Y-93436535D01*
X152169815Y-94151799D02*
X152169815Y-93436535D01*
X151727033Y-94151799D02*
X151727033Y-93436535D01*
X151727033Y-93436535D02*
X151454551Y-93436535D01*
X151454551Y-93436535D02*
X151386431Y-93470595D01*
X151386431Y-93470595D02*
X151352370Y-93504655D01*
X151352370Y-93504655D02*
X151318310Y-93572775D01*
X151318310Y-93572775D02*
X151318310Y-93674956D01*
X151318310Y-93674956D02*
X151352370Y-93743076D01*
X151352370Y-93743076D02*
X151386431Y-93777137D01*
X151386431Y-93777137D02*
X151454551Y-93811197D01*
X151454551Y-93811197D02*
X151727033Y-93811197D01*
X151079889Y-93436535D02*
X150637106Y-93436535D01*
X150637106Y-93436535D02*
X150875528Y-93709016D01*
X150875528Y-93709016D02*
X150773347Y-93709016D01*
X150773347Y-93709016D02*
X150705227Y-93743076D01*
X150705227Y-93743076D02*
X150671167Y-93777137D01*
X150671167Y-93777137D02*
X150637106Y-93845257D01*
X150637106Y-93845257D02*
X150637106Y-94015558D01*
X150637106Y-94015558D02*
X150671167Y-94083678D01*
X150671167Y-94083678D02*
X150705227Y-94117739D01*
X150705227Y-94117739D02*
X150773347Y-94151799D01*
X150773347Y-94151799D02*
X150977708Y-94151799D01*
X150977708Y-94151799D02*
X151045829Y-94117739D01*
X151045829Y-94117739D02*
X151079889Y-94083678D01*
%LPC*%
D11*
%TO.C,TP1*%
X158601100Y-110800000D03*
%TD*%
D12*
%TO.C,H4*%
X190751100Y-93000000D03*
%TD*%
D13*
%TO.C,J1*%
X123401100Y-106500000D03*
X123401100Y-101000000D03*
%TD*%
D14*
%TO.C,J2*%
X179001100Y-94050000D03*
X181001100Y-94050000D03*
%TD*%
D12*
%TO.C,H2*%
X123301100Y-114450000D03*
%TD*%
D11*
%TO.C,TP7*%
X144500938Y-105991444D03*
%TD*%
D12*
%TO.C,H3*%
X190651100Y-114450000D03*
%TD*%
D11*
%TO.C,TP4*%
X161101100Y-94250000D03*
%TD*%
%TO.C,TP8*%
X155847839Y-108258184D03*
%TD*%
%TO.C,TP2*%
X161301100Y-98810000D03*
%TD*%
%TO.C,TP6*%
X155603296Y-98274457D03*
%TD*%
D15*
%TO.C,J3*%
X187950380Y-107149790D03*
X187950380Y-100350210D03*
D16*
X186601640Y-108070540D03*
D17*
X191150780Y-108070540D03*
D18*
X187109640Y-107791140D03*
X187109640Y-99708860D03*
D16*
X186601640Y-99429460D03*
D17*
X191150780Y-99429460D03*
%TD*%
D11*
%TO.C,TP9*%
X162151100Y-94500000D03*
%TD*%
D12*
%TO.C,H1*%
X123551100Y-93300000D03*
%TD*%
D11*
%TO.C,TP5*%
X144912158Y-95059235D03*
%TD*%
%TO.C,TP3*%
X151571582Y-94725976D03*
%TD*%
%LPD*%
M02*
